<?xml version="1.0" encoding="UTF-8"?>
<svg id="uuid-0d5f7527-3977-4e22-8c56-2381ab1296e4" xmlns="http://www.w3.org/2000/svg" version="1.1" viewBox="0 0 522.3 376.7">
  <!-- Generator: Adobe Illustrator 29.6.1, SVG Export Plug-In . SVG Version: 2.1.1 Build 9)  -->
  <path d="M415.2,0c-42.3,0-78.9,24.7-96.3,60.5,0-.5,0-1-.1-1.4-2.8-24.8-23.2-55.6-59.2-55.6h-94.6v210.8h92.6c33.4,0,59.3-29.6,61.2-55,.1-1.5.2-3.1.2-4.5,17.4,35.9,54,60.6,96.4,60.6s107.1-48.2,107.1-107.7S474.3,0,415.2,0ZM245.9,165.8h-27v-36.2h27c12.3,0,17.6,10.1,17.6,18.1s-7.1,18.1-17.6,18.1ZM245.9,86.4h-27v-36.2h27c10.5,0,17.6,8.5,17.6,18.1s-5.3,18.1-17.6,18.1h0ZM287.6,107.6c5.2-1.6,14.3-5.7,21.4-13.7-1.3,10-1.2,20.1.3,30.1-7-9.5-16.2-14.7-21.7-16.4h0ZM415.3,161c-29.6,0-53.6-24-53.6-53.6s24-53.6,53.6-53.6,53.6,24,53.6,53.6h0c0,29.6-24,53.6-53.6,53.6h0Z"/>
  <circle cx="415.3" cy="107.4" r="42.2"/>
  <polygon points="95 3.5 95 82.3 58.6 82.3 58.6 3.5 0 3.5 0 214.3 58.6 214.3 58.6 132.8 95 132.8 95 214.3 153.6 214.3 153.6 3.5 95 3.5"/>
  <path d="M355.3,243s20.7,32.7,53.9,64.2c-10.8,10.3-35.9,35.7-56.8,67.6h38.1c15.1-23.6,29.7-39.2,38-47.2,8.3,8,22.9,23.6,38,47.2h38.1c-20.9-31.9-46-57.3-56.8-67.6,33.2-31.4,53.9-64.2,53.9-64.2h-38.1s-9.1,16.8-35.1,44.7c-25.9-27.9-35.1-44.7-35.1-44.7h-38.1Z"/>
  <path d="M112.4,374.8v-88.1c51.6-44.8,49.9,1.9,49.9,1.9v86.2h30.6v-91.8s0-43.3-35.4-43.3-19.1,2.7-28.3,7.7c0,0-10.3,5.5-21.1,16-2-8.5-9.1-23.7-35-23.7s-33.3,12.6-41.8,20.2v-16.9H.7v131.8h30.5v-87.6c52.3-45.7,50.6,1.4,50.6,1.4v86.2h30.6,0Z"/>
  <path d="M313.1,243v16c-9.9-12.2-24.5-19.7-44-19.7-36,0-65.2,30.8-65.2,68.7s29.2,68.7,65.2,68.7,34.1-7.8,44-19.9v18h30.6v-131.8h-30.6ZM273.2,347.3c-22.1,0-39.9-17.9-39.9-39.9s17.9-39.9,39.9-39.9,39.9,17.9,39.9,39.9-17.9,39.9-39.9,39.9h0Z"/>
</svg>